<svg id="Layer_1" data-name="Layer 1" xmlns="http://www.w3.org/2000/svg" viewBox="0 0 330.84 384.01"><title>beer</title><path d="M196.5,613.89c-3.76-1.24-7.74-2.06-11.25-3.81-12.85-6.41-20-16.87-21.18-31.29-.17-2.11-.19-4.24-.19-6.37q0-64.09,0-128.21v-5c-2.89.29-5.32.73-7.76.75a22.3,22.3,0,0,1-22.83-21.15c-.3-4.61-.15-9.25-.15-13.87,0-25.24-.09-50.48,0-75.73.14-33.53,21.34-60.36,53.36-67.42a92.28,92.28,0,0,1,15.24-1.52c2.07-.1,3.37-.52,4.65-2.25,24.09-32.53,67.74-37.57,98.79-11.57a5.39,5.39,0,0,0,4.2,1.09c17.53-4.76,31.81-.1,42.79,14.18.3.38.64.73,1.06,1.19,7.41-2.53,14.92-3.19,22.48-1.1,13.89,3.86,23.23,12.74,26.81,26.64,3.65,14.15,0,26.76-10.77,36.89a8.08,8.08,0,0,0-2.92,6.76c.18,6,.05,12,.05,18.51h4.2c10.75,0,21.5,0,32.24,0,21.47.09,37.27,15,38.41,36.39.35,6.61.14,13.25.15,19.87q0,53.61,0,107.22c0,15.08-5.86,26.84-18.9,34.72a36,36,0,0,1-18.94,5q-16.32,0-32.62,0h-4.56c0,5.51.13,10.72,0,15.91-.16,5,.06,10.11-1.1,14.88-3.82,15.69-14,25.17-29.78,28.56a12.24,12.24,0,0,0-1.71.65Zm-16.2-30a27.77,27.77,0,0,0,1.41,3.37c4.7,7.86,11.65,11.65,20.81,11.64q73.86,0,147.71,0c.88,0,1.76,0,2.63,0,8.91-.55,17.53-7.21,19.15-15H352.88c-5.87,0-9.31-2.74-9.36-7.37,0-4.79,3.42-7.55,9.54-7.57h20.5V335.27H358.13v4.48c0,15.5,0,31,0,46.49,0,9.1-3.44,16.4-11.53,20.8-2.93,1.6-3.55,3.38-3.54,6.41q.14,56.81.05,113.6a31.45,31.45,0,0,1-.27,5.23,7.36,7.36,0,0,1-14.48-.11,30.33,30.33,0,0,1-.24-4.86q0-50.61,0-101.23c0-4.87.1-9.75-.08-14.62a4.3,4.3,0,0,0-1.63-3.21c-9.66-5-13.52-13-13.35-23.62.17-11.24,0-22.49-.3-33.73-.16-6.58-3.61-11.17-9.95-13-3.92-1.13-8.06-1.51-12.1-2.19-2.66-.45-4.66.52-6.69,2.37C273,348.16,259.94,351.8,245.2,349.26A44.28,44.28,0,0,1,222.77,338c-3.62-3.26-4.18-3.08-6.58,1-7.56,12.77-18.45,21.22-32.95,24.59-3.45.8-4.46,2.07-4.45,5.62q.18,97.49.09,195v4.8h78.28c11.12,0,22.24,0,33.37,0,4.75,0,8.05,3.33,8,7.63s-3.31,7.14-7.91,7.33c-1,0-2,0-3,0H180.3Zm-32.17-214.4v40.88c0,2.49-.09,5,.11,7.49a7.44,7.44,0,0,0,7.31,7.12,7.57,7.57,0,0,0,8-6.37,27,27,0,0,0,.3-4.85c0-18.12,0-36.24,0-54.37,0-6.1,2.37-9.05,7.85-9.32,15.11-.73,25.83-8.05,32.94-21.21,3.58-6.63,10.13-9.66,17.39-7.66,3.5,1,7.3,2.53,9.83,5,12.21,11.92,31.86,11.74,43.46-.46a16.52,16.52,0,0,1,13.25-5.06c3.49.16,7,.33,10.45.81,18.56,2.59,28.36,13.5,28.93,32.22.19,6.12.09,12.25.14,18.37.05,5.5-.1,11,.24,16.49.24,4,3.51,6.5,7.4,6.44a7.14,7.14,0,0,0,7.14-6.36,30.55,30.55,0,0,0,.2-4.49q0-28.11,0-56.24c0-1.25,0-2.51.06-3.75.5-5.8,5.28-8.73,10.72-6.59,1.62.64,3.22,1.38,4.88,1.88a23.06,23.06,0,0,0,26.77-9.77,22.41,22.41,0,0,0-30-31.23c-7.27,3.91-10.16,2.91-13.71-4.69a22.42,22.42,0,0,0-30.72-10.55c-5.85,3-7.75,2.64-12.48-2.17-24.44-24.86-64.13-20.44-82.39,9.29-2.47,4-5.46,5.61-10.16,5.27-32.84-2.4-57.84,20.85-57.94,53.77C148.1,342.75,148.13,356.12,148.13,369.49ZM389,538.7c13.72,0,27.06.24,40.39-.12,5.23-.14,9.72-3,13.37-6.84,4.65-5,6.15-10.92,6.14-17.55q-.09-55.29,0-110.58c0-5.37.17-10.75-.11-16.11-.64-12.84-10.07-21.76-22.94-21.85-9.74-.06-19.49,0-29.23,0h-7.54v15h4.19c10.49,0,21,0,31.49,0,6.27,0,9.11,2.6,9.12,8.74q.07,62.79,0,125.57c0,6.24-2.78,8.9-9,8.92-10.62,0-21.24,0-31.86,0h-4Zm29.55-29.94V395.88H389.2V508.76Z" transform="translate(-133.09 -229.88)"/><path d="M223.13,459.34q0,34.31,0,68.61c0,6.91-2.51,10.32-7.53,10.3s-7.48-3.41-7.48-10.35V390.67c0-.62,0-1.25,0-1.87.16-5.29,2.94-8.58,7.33-8.7s7.63,3.3,7.64,8.75C223.15,412.34,223.12,435.84,223.13,459.34Z" transform="translate(-133.09 -229.88)"/><path d="M268.12,459.23V390.61c0-6.89,2.51-10.43,7.4-10.51s7.61,3.56,7.61,10.68q0,68.43,0,136.86a27.92,27.92,0,0,1-.24,4.48,7.36,7.36,0,0,1-14.54-.17,30.36,30.36,0,0,1-.21-4.48Q268.12,493.35,268.12,459.23Z" transform="translate(-133.09 -229.88)"/><path d="M321,583.24a7.37,7.37,0,0,1-7.49-7.28,7.48,7.48,0,1,1,15,0A7.36,7.36,0,0,1,321,583.24Z" transform="translate(-133.09 -229.88)"/></svg>