<svg id="Layer_1" data-name="Layer 1" xmlns="http://www.w3.org/2000/svg" viewBox="0 0 528 528"><defs><style>.cls-1{fill:#fff;}.cls-2{opacity:0.2;}.cls-3{fill:#8e9e9d;}</style></defs><title>beer2</title><rect class="cls-1" width="528" height="528"/><g class="cls-2"><path class="cls-3" d="M195.63,613c-3.77-1.24-7.74-2.06-11.25-3.81-12.86-6.41-20-16.87-21.18-31.29-.17-2.11-.19-4.24-.19-6.36q0-64.11,0-128.22v-5c-2.89.28-5.33.72-7.76.74A22.3,22.3,0,0,1,132.4,417.9c-.3-4.61-.15-9.24-.15-13.87,0-25.24-.08-50.48,0-75.72.14-33.54,21.34-60.37,53.36-67.42a91.12,91.12,0,0,1,15.24-1.53c2.06-.1,3.36-.52,4.65-2.25,24.09-32.53,67.74-37.57,98.78-11.57a5.47,5.47,0,0,0,4.21,1.1c17.52-4.77,31.81-.1,42.79,14.17.29.38.64.73,1.05,1.19,7.41-2.53,14.93-3.19,22.49-1.09,13.89,3.85,23.23,12.73,26.81,26.63,3.65,14.15,0,26.76-10.77,36.89a8.09,8.09,0,0,0-2.93,6.76c.18,6,.06,12,.06,18.51h4.2c10.75,0,21.49,0,32.24,0,21.47.09,37.27,15,38.4,36.4.35,6.6.15,13.24.15,19.86,0,35.74,0,71.48,0,107.22,0,15.09-5.86,26.85-18.9,34.72a36.09,36.09,0,0,1-18.95,5H388c0,5.52.13,10.72,0,15.91-.16,5,.06,10.12-1.1,14.89-3.82,15.68-14,25.16-29.78,28.55a12.24,12.24,0,0,0-1.71.65Zm-16.2-30a27.77,27.77,0,0,0,1.41,3.37c4.7,7.86,11.65,11.65,20.81,11.65q73.86,0,147.71,0c.88,0,1.75,0,2.63-.05,8.91-.55,17.53-7.2,19.15-15h-3.76c-5.12,0-10.25,0-15.37,0-5.87,0-9.31-2.74-9.36-7.37,0-4.79,3.42-7.55,9.54-7.57h20.5V334.33H357.26v4.48c0,15.5,0,31,0,46.49,0,9.11-3.43,16.4-11.52,20.8-2.93,1.6-3.55,3.39-3.54,6.41q.14,56.81.05,113.6a32.51,32.51,0,0,1-.27,5.23,7.36,7.36,0,0,1-14.48-.11,30.27,30.27,0,0,1-.24-4.86q0-50.61,0-101.23c0-4.87.1-9.75-.08-14.61a4.33,4.33,0,0,0-1.63-3.22c-9.66-5-13.52-13-13.35-23.62.17-11.24,0-22.49-.3-33.73-.17-6.57-3.61-11.17-9.95-13-3.92-1.14-8.06-1.51-12.1-2.2-2.66-.45-4.66.52-6.7,2.37-11.05,10.09-24.08,13.73-38.81,11.19A44.35,44.35,0,0,1,221.9,337c-3.62-3.27-4.19-3.08-6.58,1-7.57,12.76-18.45,21.21-32.95,24.58-3.45.8-4.46,2.07-4.45,5.63q.18,97.47.09,195V568h78.28c11.12,0,22.24-.05,33.36,0,4.76,0,8.05,3.34,8,7.64s-3.31,7.14-7.91,7.32c-1,0-2,0-3,0H179.43ZM147.26,368.56q0,20.43,0,40.87c0,2.5-.09,5,.11,7.49a7.46,7.46,0,0,0,7.3,7.13,7.59,7.59,0,0,0,8-6.38,28,28,0,0,0,.3-4.85c0-18.12,0-36.24,0-54.37,0-6.1,2.38-9.05,7.86-9.32,15.11-.73,25.83-8,32.94-21.21,3.58-6.63,10.13-9.65,17.39-7.66,3.49,1,7.3,2.53,9.82,5,12.22,11.92,31.87,11.74,43.47-.46a16.55,16.55,0,0,1,13.25-5.06c3.49.16,7,.33,10.45.81,18.56,2.59,28.35,13.5,28.93,32.22.19,6.12.09,12.25.14,18.37,0,5.5-.11,11,.23,16.49.25,4,3.52,6.5,7.41,6.44A7.14,7.14,0,0,0,342,387.7a31.93,31.93,0,0,0,.2-4.49q0-28.11,0-56.24c0-1.25-.05-2.5.06-3.75.49-5.8,5.28-8.72,10.71-6.59,1.63.64,3.22,1.38,4.89,1.89a23.08,23.08,0,0,0,26.77-9.78,22.41,22.41,0,0,0-30-31.23c-7.27,3.91-10.17,2.92-13.71-4.69a22.44,22.44,0,0,0-30.72-10.55c-5.86,3-7.75,2.65-12.48-2.16-24.44-24.87-64.13-20.45-82.39,9.28-2.48,4-5.47,5.62-10.16,5.27-32.84-2.4-57.84,20.85-57.94,53.78C147.22,341.81,147.26,355.18,147.26,368.56Zm240.86,169.2c13.72,0,27.07.24,40.4-.12,5.23-.14,9.71-2.95,13.37-6.84,4.65-4.95,6.14-10.92,6.13-17.55q-.07-55.28,0-110.57c0-5.38.17-10.76-.1-16.12-.65-12.84-10.07-21.76-22.94-21.84-9.74-.07-19.49,0-29.24,0h-7.53v15h4.19q15.74,0,31.48,0c6.28,0,9.12,2.6,9.13,8.74q.07,62.79,0,125.58c0,6.23-2.78,8.9-9,8.91-10.62,0-21.24,0-31.86,0h-4Zm29.56-29.94V394.94H388.33V507.82Z" transform="translate(-33.64 -156.94)"/><path class="cls-3" d="M222.25,458.4q0,34.31,0,68.61c0,6.91-2.51,10.32-7.52,10.31s-7.48-3.42-7.48-10.36V389.74c0-.63,0-1.25,0-1.88.16-5.28,2.94-8.58,7.33-8.69s7.63,3.29,7.64,8.74Q222.31,423.16,222.25,458.4Z" transform="translate(-33.64 -156.94)"/><path class="cls-3" d="M267.25,458.29q0-34.31,0-68.61c0-6.9,2.5-10.44,7.4-10.52s7.6,3.56,7.6,10.68q0,68.43,0,136.86a27.92,27.92,0,0,1-.24,4.48,7.37,7.37,0,0,1-14.55-.16,30.55,30.55,0,0,1-.2-4.49Q267.23,492.41,267.25,458.29Z" transform="translate(-33.64 -156.94)"/><path class="cls-3" d="M320.14,582.3a7.37,7.37,0,0,1-7.49-7.28,7.48,7.48,0,1,1,15,0A7.36,7.36,0,0,1,320.14,582.3Z" transform="translate(-33.64 -156.94)"/></g></svg>