<svg id="Layer_1" data-name="Layer 1" xmlns="http://www.w3.org/2000/svg" viewBox="0 0 528 528"><defs><style>.cls-1{fill:none;}.cls-2{opacity:0.2;}.cls-3{fill:#8e9e9d;}</style></defs><title>beer3</title><rect class="cls-1" width="528" height="528"/><g class="cls-2"><path class="cls-3" d="M162,456.06c-3.77-1.24-7.74-2.06-11.25-3.81-12.86-6.41-20-16.87-21.18-31.29-.17-2.11-.19-4.24-.19-6.36V281.38c-2.89.28-5.33.72-7.76.74A22.3,22.3,0,0,1,98.76,261c-.3-4.61-.15-9.24-.15-13.87,0-25.24-.08-50.48,0-75.72C98.75,137.83,120,111,152,104a90.7,90.7,0,0,1,15.24-1.53c2.06-.1,3.36-.52,4.65-2.25C196,67.64,239.6,62.6,270.64,88.6a5.48,5.48,0,0,0,4.21,1.1c17.52-4.77,31.81-.1,42.79,14.17.29.38.64.73,1.05,1.19,7.41-2.53,14.93-3.19,22.49-1.09,13.89,3.85,23.23,12.73,26.81,26.63,3.65,14.15,0,26.76-10.77,36.89a8.07,8.07,0,0,0-2.93,6.76c.18,6,.06,12,.06,18.51h36.44c21.47.09,37.27,15,38.4,36.4.35,6.6.15,13.24.15,19.86V356.24c0,15.09-5.86,26.85-18.9,34.72a36.13,36.13,0,0,1-18.95,5H354.36c0,5.52.13,10.72,0,15.91-.16,5,.06,10.12-1.1,14.89-3.82,15.68-14,25.16-29.78,28.55a11.36,11.36,0,0,0-1.71.65Zm-16.2-30a29.23,29.23,0,0,0,1.41,3.37c4.7,7.86,11.65,11.65,20.81,11.65H315.72c.88,0,1.75,0,2.63-.05,8.91-.55,17.53-7.2,19.15-15H318.37c-5.87,0-9.31-2.74-9.36-7.37,0-4.79,3.42-7.55,9.54-7.57h20.5V177.39H323.62v51c0,9.11-3.43,16.4-11.52,20.8-2.93,1.6-3.55,3.39-3.54,6.41q.13,56.81.05,113.6a32.63,32.63,0,0,1-.27,5.23,7.36,7.36,0,0,1-14.48-.11,30.38,30.38,0,0,1-.24-4.86V268.2c0-4.87.1-9.75-.08-14.61a4.31,4.31,0,0,0-1.63-3.22c-9.66-5-13.52-13-13.35-23.62.17-11.24,0-22.49-.3-33.73-.17-6.57-3.61-11.17-9.95-13-3.92-1.14-8.06-1.51-12.1-2.2-2.66-.45-4.66.52-6.7,2.37-11,10.09-24.08,13.73-38.81,11.19a44.3,44.3,0,0,1-22.44-11.32c-3.62-3.27-4.19-3.08-6.58,1-7.57,12.76-18.45,21.21-33,24.58-3.45.8-4.46,2.07-4.45,5.63q.18,97.47.09,195v4.79h78.28c11.12,0,22.24-.05,33.36,0,4.76,0,8.05,3.34,8,7.64s-3.31,7.14-7.91,7.32H145.79ZM113.62,211.62v40.87c0,2.5-.09,5,.11,7.49a7.46,7.46,0,0,0,7.3,7.13,7.6,7.6,0,0,0,8-6.38,28.09,28.09,0,0,0,.3-4.85V201.51c0-6.1,2.38-9,7.86-9.32,15.11-.73,25.83-8,32.94-21.21,3.58-6.63,10.13-9.65,17.39-7.66,3.49,1,7.3,2.53,9.82,5,12.22,11.92,31.87,11.74,43.47-.46a16.54,16.54,0,0,1,13.25-5.06c3.49.16,7,.33,10.45.81,18.56,2.59,28.35,13.5,28.93,32.22.19,6.12.09,12.25.14,18.37,0,5.5-.11,11,.23,16.49.25,4,3.52,6.5,7.41,6.44a7.14,7.14,0,0,0,7.14-6.37,32.07,32.07,0,0,0,.2-4.49V170c0-1.25-.05-2.5.06-3.75.49-5.8,5.28-8.72,10.71-6.59,1.63.64,3.22,1.38,4.89,1.89A23.07,23.07,0,0,0,351,151.8a22.41,22.41,0,0,0-30-31.23c-7.27,3.91-10.17,2.92-13.71-4.69a22.45,22.45,0,0,0-29.76-11l-1,.47c-5.86,3-7.75,2.65-12.48-2.16C239.64,78.3,200,82.72,181.69,112.45c-2.48,4-5.47,5.62-10.16,5.27-32.84-2.4-57.84,20.85-57.94,53.78C113.58,184.87,113.62,198.24,113.62,211.62Zm240.86,169.2c13.72,0,27.07.24,40.4-.12,5.23-.14,9.71-2.95,13.37-6.84,4.65-4.95,6.14-10.92,6.13-17.55q-.08-55.28,0-110.57c0-5.38.17-10.76-.1-16.12-.65-12.84-10.07-21.76-22.94-21.84-9.74-.07-19.49,0-29.24,0h-7.53v15h35.67c6.28,0,9.12,2.6,9.13,8.74q.08,62.79,0,125.58c0,6.23-2.78,8.9-9,8.91H354.51ZM384,350.88V238H354.69V350.88Z" transform="translate(0 0)"/><path class="cls-3" d="M188.61,301.46v68.61c0,6.91-2.51,10.32-7.52,10.31S173.61,377,173.61,370V230.92c.16-5.28,2.94-8.58,7.33-8.69s7.63,3.29,7.64,8.74Q188.67,266.22,188.61,301.46Z" transform="translate(0 0)"/><path class="cls-3" d="M233.61,301.35V232.74c0-6.9,2.5-10.44,7.4-10.52s7.6,3.56,7.6,10.68V369.76a27.92,27.92,0,0,1-.24,4.48,7.37,7.37,0,0,1-14.55-.16,30.62,30.62,0,0,1-.2-4.49Q233.59,335.47,233.61,301.35Z" transform="translate(0 0)"/><path class="cls-3" d="M286.5,425.36a7.37,7.37,0,0,1-7.49-7.25v0a7.5,7.5,0,1,1,15,0,7.36,7.36,0,0,1-7.44,7.28Z" transform="translate(0 0)"/></g></svg>