<?xml version="1.0" standalone="no"?>
<!DOCTYPE svg PUBLIC "-//W3C//DTD SVG 20010904//EN"
 "http://www.w3.org/TR/2001/REC-SVG-20010904/DTD/svg10.dtd">
<svg version="1.0" xmlns="http://www.w3.org/2000/svg"
 width="768.000000pt" height="768.000000pt" viewBox="0 0 768.000000 768.000000"
 preserveAspectRatio="xMidYMid meet">
<metadata>
Created by potrace 1.14, written by Peter Selinger 2001-2017
</metadata>
<g transform="translate(0.000000,768.000000) scale(0.100000,-0.100000)"
fill="#000000" stroke="none">
<path d="M2860 7660 c-94 -18 -276 -74 -295 -91 -5 -5 -17 -9 -27 -9 -10 0
-18 -4 -18 -9 0 -5 -10 -11 -23 -15 -55 -13 -244 -153 -349 -256 -59 -59 -108
-112 -108 -118 0 -7 -3 -12 -7 -12 -5 0 -17 -14 -28 -30 -24 -37 -59 -47 -185
-54 -52 -2 -104 -7 -115 -9 -11 -3 -45 -8 -75 -12 -114 -15 -337 -103 -464
-182 -173 -109 -356 -300 -442 -463 -16 -30 -33 -58 -37 -61 -5 -3 -8 -9 -8
-12 0 -4 -8 -27 -19 -51 -39 -93 -83 -239 -94 -321 -4 -23 -10 -52 -13 -65 -4
-14 -9 -473 -10 -1020 -3 -1076 -4 -1037 50 -1150 28 -58 130 -162 185 -189
47 -24 141 -50 187 -52 17 -1 66 1 110 5 l80 7 1 -1398 c1 -769 4 -1416 8
-1438 5 -31 22 -109 31 -145 10 -36 58 -134 88 -180 64 -96 195 -205 307 -257
25 -12 84 -33 132 -47 l86 -27 1593 1 c1570 1 1595 1 1659 21 36 11 74 22 85
25 34 6 178 81 215 111 68 55 136 132 175 199 22 37 40 71 40 74 0 3 4 11 8
18 5 7 17 43 28 80 34 114 38 157 39 450 0 122 4 222 8 222 4 0 198 2 432 4
234 2 437 6 451 9 53 10 145 41 160 54 8 7 20 13 26 13 6 0 44 22 85 49 176
118 284 286 325 503 10 52 11 2723 1 2788 -3 25 -7 47 -8 50 -1 3 -3 10 -4 15
-12 66 -63 185 -110 255 -110 164 -302 284 -506 316 -25 4 -225 8 -445 10
-220 1 -403 2 -407 3 -5 0 -8 94 -8 207 1 227 7 254 67 305 81 70 175 219 209
334 18 63 26 270 11 330 -4 17 -9 39 -11 50 -22 99 -73 207 -136 290 -132 172
-375 285 -600 279 -77 -2 -189 -21 -232 -39 -11 -4 -26 5 -50 31 -103 118
-188 188 -283 237 -30 15 -117 46 -145 52 -128 25 -253 23 -375 -9 -64 -16
-104 -7 -157 36 -66 52 -163 118 -175 118 -6 0 -13 4 -15 8 -6 14 -171 89
-254 115 -148 47 -231 60 -394 62 -114 2 -180 -2 -250 -15z m470 -309 c41 -12
82 -23 90 -25 54 -15 175 -75 250 -125 66 -43 85 -59 164 -134 34 -33 80 -67
102 -78 47 -21 74 -16 187 35 31 14 81 29 110 32 28 4 54 8 57 9 11 7 156 -24
195 -40 90 -39 164 -113 224 -223 80 -149 122 -165 266 -97 162 75 277 78 420
11 145 -69 243 -216 251 -376 12 -260 -193 -471 -457 -472 -61 0 -95 7 -165
32 -49 17 -106 34 -128 37 -54 7 -108 -19 -135 -68 -12 -21 -19 -39 -16 -39 3
0 3 -6 -2 -12 -4 -7 -8 -308 -9 -668 0 -434 -4 -663 -11 -680 -18 -41 -48 -69
-89 -83 -85 -29 -175 21 -189 105 -4 24 -9 205 -10 403 -4 445 -10 496 -78
634 -28 59 -109 153 -172 201 -38 29 -150 78 -219 95 -96 23 -102 24 -181 31
-238 19 -304 3 -412 -101 -26 -26 -60 -54 -75 -63 -16 -9 -28 -20 -28 -25 0
-4 -4 -6 -9 -2 -5 3 -12 1 -16 -5 -7 -12 -85 -47 -134 -59 -210 -55 -399 -11
-573 132 -73 60 -162 107 -228 123 -125 28 -248 -16 -312 -114 -14 -20 -51
-76 -82 -124 -120 -184 -329 -317 -523 -333 -150 -12 -187 -28 -218 -90 -19
-38 -20 -64 -21 -660 0 -341 -4 -631 -9 -645 -28 -88 -122 -134 -207 -101 -36
14 -88 69 -90 95 0 12 -2 32 -4 46 -7 68 -6 371 1 379 2 2 0 11 -5 21 -5 10
-7 20 -3 24 3 3 5 61 4 128 -1 68 -2 128 -2 133 0 6 0 98 0 205 0 242 1 284 6
288 2 2 -1 16 -5 32 -4 16 -6 31 -2 34 6 6 5 257 -2 263 -2 2 0 18 4 36 4 18
4 41 0 52 -4 11 -4 30 1 42 5 13 4 25 -2 28 -5 4 -7 10 -4 14 2 5 7 62 9 127
3 66 7 130 10 144 3 14 8 39 12 55 47 235 191 475 363 603 20 15 38 30 41 34
3 4 42 28 85 53 91 51 220 101 310 119 75 16 110 18 255 21 181 3 216 14 266
87 33 49 30 44 85 118 23 30 58 72 78 93 47 49 156 137 170 137 6 0 11 4 11 9
0 5 46 32 103 60 102 50 212 86 297 97 25 3 46 7 48 9 2 2 65 1 140 0 99 -3
158 -10 212 -24z m2011 -1786 c1 -5 2 -1057 3 -2338 l1 -2327 -65 0 c-432 -3
-457 -5 -501 -56 -21 -24 -38 -77 -34 -101 2 -10 4 -26 4 -35 2 -32 58 -85
103 -96 24 -6 50 -11 58 -11 8 0 38 0 65 0 28 0 59 -1 70 0 183 1 265 -2 265
-11 0 -43 -90 -164 -161 -215 -24 -18 -102 -52 -144 -64 -53 -15 -3109 -15
-3186 -1 -65 12 -147 49 -185 83 -16 14 -38 34 -49 44 -34 30 -93 125 -95 149
0 9 283 12 1113 12 984 0 1117 2 1147 15 50 23 68 39 84 78 28 71 -2 150 -71
185 -42 21 -42 21 -1165 22 -618 0 -1127 1 -1133 1 -7 1 -10 683 -10 2025 l0
2024 24 26 c14 14 30 26 37 26 22 0 175 51 234 77 156 71 317 216 425 382 44
68 71 101 84 101 10 0 59 -33 109 -73 73 -59 205 -139 232 -142 3 -1 28 -8 55
-18 28 -9 53 -17 57 -18 4 0 22 -5 40 -10 87 -26 272 -28 383 -5 11 2 57 16
103 32 112 36 222 103 326 197 58 52 116 53 321 5 131 -30 191 -76 227 -172
17 -46 19 -90 23 -461 2 -225 6 -421 10 -435 3 -14 7 -35 9 -47 7 -35 58 -143
67 -143 5 0 9 -5 9 -12 0 -16 75 -85 136 -124 29 -19 56 -39 61 -46 4 -7 9
-560 10 -1228 0 -668 3 -1225 6 -1237 20 -83 121 -130 207 -95 30 12 65 50 76
83 5 13 9 571 9 1239 1 1194 1 1216 20 1242 11 15 36 36 57 47 105 60 188 174
211 291 9 43 13 213 12 597 l0 538 40 5 c73 9 265 5 266 -5z m1139 -609 c24
-4 51 -11 60 -16 8 -4 20 -9 25 -10 31 -4 105 -52 149 -95 58 -58 100 -134
124 -225 9 -33 9 -2694 0 -2745 -4 -22 -15 -58 -24 -80 -10 -22 -18 -42 -18
-45 -4 -26 -125 -160 -146 -160 -5 0 -10 -4 -10 -8 0 -9 -57 -38 -105 -54 -29
-10 -847 -20 -871 -11 -8 3 -11 51 -11 149 l1 144 90 -1 c50 0 96 0 101 1 6 1
14 2 19 1 13 -3 158 -3 171 0 6 1 14 1 18 0 9 -2 258 -3 267 -1 3 0 32 2 65 4
76 3 119 26 145 76 20 38 20 58 20 1352 0 1300 0 1314 -20 1354 -15 30 -32 47
-62 60 -38 17 -72 19 -427 19 l-386 0 -1 140 c0 77 1 145 3 150 4 12 752 13
823 1z m-235 -1711 c0 -610 -1 -1117 -3 -1126 -3 -14 -37 -16 -293 -16 -159 0
-289 3 -290 6 -1 8 -1 2211 0 2233 1 17 22 18 293 15 l292 -2 1 -1110z"/>
<path d="M2146 4669 c-62 -17 -101 -77 -105 -163 -1 -28 -4 -53 -6 -56 -2 -3
0 -23 4 -43 5 -20 6 -38 3 -41 -5 -5 -7 -279 -2 -301 1 -5 2 -14 1 -20 -5 -27
-1 -2338 4 -2384 7 -67 28 -103 74 -129 71 -40 165 -11 198 62 17 38 18 109
18 1511 l0 1470 -27 36 c-42 54 -100 75 -162 58z"/>
<path d="M3346 4669 c-52 -15 -89 -61 -103 -129 -7 -31 -6 -2877 1 -2905 2
-11 5 -25 5 -31 2 -22 65 -74 104 -85 76 -20 154 26 175 104 6 20 9 642 8
1483 l-1 1449 -22 41 c-12 23 -33 48 -46 57 -30 20 -84 27 -121 16z"/>
<path d="M4246 900 c-103 -32 -132 -179 -50 -251 25 -22 82 -39 116 -35 64 8
126 70 132 133 3 32 -17 89 -42 116 -33 37 -102 53 -156 37z"/>
</g>
</svg>
